<?xml version="1.0" encoding="utf-8"?>
<!-- Generator: Adobe Illustrator 22.1.0, SVG Export Plug-In . SVG Version: 6.00 Build 0)  -->
<svg version="1.1" id="圖層_1" xmlns="http://www.w3.org/2000/svg" xmlns:xlink="http://www.w3.org/1999/xlink" x="0px" y="0px"
	 viewBox="0 0 48 48" style="enable-background:new 0 0 48 48;" xml:space="preserve">
<style type="text/css">
	.st0{fill:#FFFFFF;}
</style>
<path class="st0" d="M14.6,40.3c-0.4,0-0.8-0.1-1.1-0.2c-0.3-0.2-0.7-0.4-0.9-0.7c-0.3-0.3-0.5-0.6-0.6-1c-0.1-0.4-0.2-0.7-0.1-1.1
	l0.9-9l-6.1-6.8c-0.3-0.4-0.5-0.8-0.6-1.3c-0.1-0.5-0.1-1,0.1-1.4c0.1-0.5,0.4-0.9,0.8-1.2c0.4-0.3,0.8-0.5,1.3-0.6l8.9-1.9l4.4-7.6
	c0.3-0.4,0.6-0.8,1.1-1.1C23,6,23.5,5.9,24,5.9s1,0.1,1.4,0.4c0.4,0.3,0.8,0.6,1.1,1.1l4.5,7.6l8.9,1.9c0.5,0.1,0.9,0.3,1.3,0.6
	c0.4,0.3,0.6,0.7,0.8,1.2c0.1,0.5,0.2,0.9,0.1,1.4c-0.1,0.5-0.3,0.9-0.6,1.3l-6.1,6.8l0.9,9c0,0.5,0,1-0.2,1.4
	c-0.2,0.4-0.5,0.8-0.9,1.1c-0.4,0.3-0.8,0.5-1.3,0.5c-0.5,0.1-1,0-1.4-0.2L24,36.4L15.7,40C15.3,40.2,14.9,40.3,14.6,40.3z M24,7.9
	c-0.2,0-0.3,0-0.4,0.1c-0.1,0.1-0.2,0.2-0.3,0.3l-4.7,8c-0.1,0.1-0.2,0.2-0.3,0.3c-0.1,0.1-0.2,0.1-0.4,0.2l-9.3,2
	c-0.1,0-0.2,0.1-0.3,0.2c-0.1,0.1-0.2,0.2-0.2,0.3c0,0.1,0,0.3,0,0.4c0,0.1,0.1,0.2,0.2,0.3l6.4,7.1c0.1,0.1,0.2,0.2,0.2,0.4
	c0,0.1,0.1,0.3,0,0.4l-1,9.5c0,0.1,0,0.3,0.1,0.4s0.1,0.2,0.2,0.3c0.1,0.1,0.2,0.1,0.4,0.1c0.1,0,0.3,0,0.4-0.1l8.7-3.8
	c0.1-0.1,0.3-0.1,0.4-0.1s0.3,0,0.4,0.1l8.7,3.8c0.1,0.1,0.2,0.1,0.4,0.1c0.1,0,0.3-0.1,0.4-0.1c0.1-0.1,0.2-0.2,0.2-0.3
	s0.1-0.2,0.1-0.4l-1-9.5c0-0.1,0-0.3,0-0.4c0-0.1,0.1-0.3,0.2-0.4l6.4-7.1c0.1-0.1,0.1-0.2,0.2-0.3c0-0.1,0-0.3,0-0.4
	s-0.1-0.2-0.2-0.3c-0.1-0.1-0.2-0.1-0.3-0.2l-9.3-2c-0.1,0-0.3-0.1-0.4-0.2c-0.1-0.1-0.2-0.2-0.3-0.3l-4.7-8
	c-0.1-0.1-0.2-0.2-0.3-0.3C24.3,7.9,24.2,7.9,24,7.9L24,7.9z"/>
<path class="st0" d="M24,46c-0.3,0-0.5-0.1-0.7-0.3S23,45.3,23,45v-4c0-0.3,0.1-0.5,0.3-0.7S23.7,40,24,40s0.5,0.1,0.7,0.3
	S25,40.7,25,41v4c0,0.3-0.1,0.5-0.3,0.7S24.3,46,24,46z"/>
<path class="st0" d="M4,31.5c-0.2,0-0.5-0.1-0.6-0.2c-0.2-0.2-0.3-0.4-0.3-0.6c0-0.2,0-0.5,0.1-0.7c0.1-0.2,0.3-0.4,0.5-0.4l3.8-1.2
	c0.2-0.1,0.5,0,0.7,0.1c0.2,0.1,0.4,0.3,0.5,0.6s0.1,0.5,0,0.7c-0.1,0.2-0.3,0.4-0.5,0.5l-3.8,1.2C4.2,31.5,4.1,31.5,4,31.5L4,31.5z
	"/>
<path class="st0" d="M44,31.5c-0.1,0-0.2,0-0.3,0l-3.8-1.2c-0.1,0-0.3-0.1-0.4-0.2c-0.1-0.1-0.2-0.2-0.3-0.3
	c-0.1-0.1-0.1-0.2-0.1-0.4c0-0.1,0-0.3,0-0.4c0-0.1,0.1-0.2,0.2-0.3s0.2-0.2,0.3-0.2c0.1-0.1,0.3-0.1,0.4-0.1c0.1,0,0.3,0,0.4,0.1
	l3.8,1.2c0.2,0.1,0.4,0.2,0.5,0.4c0.1,0.2,0.2,0.4,0.1,0.7c0,0.2-0.2,0.4-0.3,0.6C44.4,31.4,44.2,31.5,44,31.5L44,31.5z"/>
<path class="st0" d="M34,11.2c-0.2,0-0.4-0.1-0.5-0.1c-0.2-0.1-0.3-0.2-0.4-0.4C33,10.5,33,10.4,33,10.2c0-0.2,0.1-0.4,0.2-0.5
	l2.4-3.2c0.2-0.2,0.4-0.4,0.7-0.4c0.3,0,0.5,0,0.7,0.2c0.2,0.2,0.4,0.4,0.4,0.7c0,0.3,0,0.5-0.2,0.7l-2.4,3.2
	c-0.1,0.1-0.2,0.2-0.4,0.3C34.3,11.2,34.1,11.2,34,11.2z"/>
<path class="st0" d="M14,11.2c-0.2,0-0.3,0-0.5-0.1c-0.1-0.1-0.3-0.2-0.4-0.3l-2.4-3.2c-0.2-0.2-0.2-0.5-0.2-0.7
	c0-0.3,0.2-0.5,0.4-0.7C11.3,6,11.6,6,11.8,6c0.3,0,0.5,0.2,0.7,0.4l2.4,3.2C14.9,9.8,15,10,15,10.2c0,0.2,0,0.4-0.1,0.5
	s-0.2,0.3-0.4,0.4C14.4,11.2,14.2,11.2,14,11.2L14,11.2z"/>
</svg>
