<?xml version="1.0" encoding="utf-8"?>
<!-- Generator: Adobe Illustrator 22.1.0, SVG Export Plug-In . SVG Version: 6.00 Build 0)  -->
<svg version="1.1" id="圖層_1" xmlns="http://www.w3.org/2000/svg" xmlns:xlink="http://www.w3.org/1999/xlink" x="0px" y="0px"
	 viewBox="0 0 48 48" style="enable-background:new 0 0 48 48;" xml:space="preserve">
<path d="M44.1,42.1l-1-2.9c-0.4-1.2-1.1-2.3-1.9-3.3c-0.9-0.9-1.9-1.7-3.1-2.2l-4.2-1.8l4.4-0.9c0.2,0,0.3-0.1,0.4-0.2
	c0.1-0.1,0.2-0.3,0.3-0.4c0.1-0.2,0.1-0.3,0-0.5c0-0.2-0.1-0.3-0.2-0.5c-1.4-1.7-2.3-3.8-2.6-6.1c0.5-0.3,0.9-0.8,1.2-1.3
	s0.5-1.1,0.6-1.7s0-1.2-0.2-1.7c-0.2-0.6-0.5-1.1-0.9-1.5c0.5-1.9,0.5-4,0-5.9c-0.4-1.9-1.3-3.8-2.5-5.3s-2.8-2.8-4.6-3.7
	C28,1.4,26,1,24,1s-4,0.5-5.7,1.3c-1.8,0.9-3.4,2.1-4.6,3.7s-2.1,3.4-2.5,5.3s-0.4,4,0,5.9c-0.4,0.4-0.7,0.9-0.9,1.5
	C10,19.2,10,19.8,10,20.4c0.1,0.6,0.2,1.2,0.6,1.7c0.3,0.5,0.7,0.9,1.2,1.3c-0.3,2.2-1.2,4.3-2.6,6.1c-0.1,0-0.2,0.2-0.2,0.3
	c0,0.2,0,0.3,0,0.5s0.2,0.3,0.3,0.4s0.3,0.2,0.4,0.2l4.4,0.9L10,33.7c-1.2,0.5-2.3,1.2-3.1,2.2S5.4,38,5,39.2l-1,2.9
	c-0.2,0.5-0.2,0.9-0.1,1.4C4,44,4.2,44.4,4.4,44.8c0.3,0.4,0.6,0.7,1.1,0.9C5.8,45.9,6.3,46,6.8,46h34.5c0.5,0,0.9-0.1,1.4-0.3
	c0.4-0.2,0.8-0.5,1.1-0.9s0.5-0.8,0.5-1.3S44.2,42.5,44.1,42.1L44.1,42.1z M24,42.6c-0.9-1-1.7-2.1-2.3-3.3c1.5,0.2,3.1,0.2,4.6,0
	C25.7,40.5,24.9,41.6,24,42.6z M12,20c0-0.5,0.2-1,0.6-1.4C13,18.2,13.5,18,14,18c0.1,0,0.1,0,0.2,0l6.8-1.2
	c2.5-0.5,4.9-1.6,6.9-3.3l0.4,0.6c1.4,1.8,3.2,3.2,5.4,3.9c0.1,0,0.2,0.1,0.3,0.1c0.5,0,1,0.2,1.4,0.6C35.8,19,36,19.5,36,20
	s-0.2,1-0.6,1.4C35,21.8,34.5,22,34,22c-0.1,0-0.3,0-0.4-0.1c-0.1,0-0.3,0-0.4,0c-0.1,0-0.3,0.1-0.4,0.1c-0.1,0.1-0.2,0.2-0.3,0.3
	c-0.1,0.1-0.1,0.2-0.2,0.4l-0.6,2.8c-0.2,0.9-0.6,1.8-1.1,2.5c-0.5,0.8-1.2,1.4-2,1.9l-3,1.9c-0.5,0.3-1,0.5-1.6,0.5
	s-1.1-0.2-1.6-0.5l-3-1.9c-0.8-0.5-1.5-1.1-2-1.9s-0.9-1.6-1.1-2.5l-0.6-2.8c0-0.2-0.2-0.4-0.3-0.6c-0.2-0.1-0.4-0.2-0.6-0.2
	c-0.1,0-0.2,0-0.2,0c-0.1,0-0.3,0-0.4,0c-0.5,0-1-0.2-1.4-0.6C12.2,21,12,20.5,12,20z M27.3,37.1c-2.1,0.5-4.3,0.5-6.5,0
	c-0.5-1.4-0.7-2.9-0.8-4.4l1.3,0.8c0.8,0.5,1.7,0.8,2.6,0.8s1.9-0.3,2.6-0.8l1.3-0.8C28,34.2,27.7,35.7,27.3,37.1z M36.3,29.3
	l-5.1,1.1c1.2-1.2,2.1-2.8,2.5-4.5l0.4-1.9c0.1,0,0.1,0,0.2,0C34.6,25.9,35.3,27.7,36.3,29.3L36.3,29.3z M12.8,14.2
	c0-1.6,0.3-3.1,0.9-4.5c0.6-1.4,1.5-2.7,2.7-3.8c1.1-1.1,2.5-1.9,4-2.4s3-0.6,4.6-0.5s3.1,0.6,4.4,1.3c1.4,0.8,2.6,1.8,3.5,3
	s1.6,2.7,2,4.2s0.4,3.1,0.1,4.6C34.7,16,34.4,16,34.2,16c-1.7-0.6-3.2-1.7-4.3-3.1l-1.1-1.5c-0.1-0.1-0.2-0.2-0.3-0.3
	C28.4,11,28.2,11,28.1,11s-0.3,0-0.4,0.1s-0.3,0.1-0.4,0.2c-1.8,1.8-4.1,3-6.6,3.5L13.9,16c-0.3,0-0.6,0.1-0.9,0.1
	C12.9,15.5,12.8,14.8,12.8,14.2L12.8,14.2z M13.7,24c0.1,0,0.1,0,0.2,0l0.4,2c0.4,1.7,1.3,3.3,2.5,4.5l-5.1-1.1
	C12.7,27.7,13.4,25.9,13.7,24L13.7,24z M6,43.6c-0.1-0.1-0.2-0.3-0.2-0.4c0-0.2,0-0.3,0-0.5l1-2.9c0.3-0.9,0.8-1.8,1.5-2.6
	c0.7-0.7,1.5-1.3,2.4-1.7l7.3-3c0,4.3,1.7,8.4,4.6,11.5H6.8c-0.2,0-0.3,0-0.5-0.1C6.2,43.8,6.1,43.7,6,43.6L6,43.6z M42,43.6
	c-0.1,0.1-0.2,0.2-0.4,0.3C41.5,44,41.4,44,41.2,44H25.5c2.9-3.1,4.5-7.2,4.5-11.5l7.3,3c0.9,0.4,1.8,1,2.4,1.7
	c0.7,0.7,1.2,1.6,1.5,2.6l1,2.9c0.1,0.1,0.1,0.3,0,0.5C42.2,43.3,42.1,43.5,42,43.6L42,43.6z"/>
</svg>
