<?xml version="1.0" encoding="utf-8"?>
<!-- Generator: Adobe Illustrator 22.1.0, SVG Export Plug-In . SVG Version: 6.00 Build 0)  -->
<svg version="1.1" id="Layer_1" xmlns="http://www.w3.org/2000/svg" xmlns:xlink="http://www.w3.org/1999/xlink" x="0px" y="0px"
	 viewBox="0 0 24 24" style="enable-background:new 0 0 24 24;" xml:space="preserve">
<style type="text/css">
	.st0{fill:#020202;}
</style>
<path class="st0" d="M22.5,6H18V3.5c0-0.1-0.1-0.3-0.1-0.4l-2-2c-0.1,0-0.3-0.1-0.4-0.1h-7C8.4,1,8.2,1.1,8.1,1.1l-2,2
	C6.1,3.2,6,3.4,6,3.5V6H1.5C1.2,6,1,6.2,1,6.5V21c0,1.1,0.9,2,2,2h18c1.1,0,2-0.9,2-2V6.5C23,6.2,22.8,6,22.5,6z M17,6h-1V2.7l1,1V6
	z M15,3H9V2h6V3z M9,4h6v2H9V4z M7,3.7l1-1V6H7V3.7z M22,21c0,0.6-0.4,1-1,1H3c-0.6,0-1-0.4-1-1V7h20V21z"/>
</svg>
