<?xml version="1.0" encoding="iso-8859-1"?>
<!-- Generator: Adobe Illustrator 19.0.0, SVG Export Plug-In . SVG Version: 6.00 Build 0)  -->
<svg version="1.1" id="Layer_1" xmlns="http://www.w3.org/2000/svg" xmlns:xlink="http://www.w3.org/1999/xlink" x="0px" y="0px"
	 viewBox="0 0 512 512" style="enable-background:new 0 0 512 512;" xml:space="preserve">
<g>
	<g>
		<g>
			<path d="M375.467,435.187c2.219,0,4.437-0.939,6.059-2.475c1.536-1.621,2.475-3.755,2.475-6.059c0-2.219-0.939-4.437-2.475-6.059
				c-3.157-3.157-8.96-3.157-12.117,0c-1.544,1.621-2.475,3.84-2.475,6.059c0,2.304,0.93,4.437,2.475,6.059
				C371.021,434.249,373.248,435.187,375.467,435.187z"/>
			<path d="M177.869,341.346c-4.719,0-8.533,3.823-8.533,8.533s3.814,8.533,8.533,8.533h35.465c4.719,0,8.533-3.823,8.533-8.533
				s-3.814-8.533-8.533-8.533H177.869z"/>
			<path d="M401.587,123.584c15.044,27.46,23.586,58.325,24.9,89.762h-59.554c-4.719,0-8.533,3.823-8.533,8.533
				c0,4.71,3.814,8.533,8.533,8.533H435.2c4.719,0,8.533-3.823,8.533-8.533c0-37.222-9.404-74.052-27.187-106.496
				c-2.253-4.13-7.45-5.641-11.58-3.379C400.836,114.274,399.317,119.454,401.587,123.584z"/>
			<path d="M89.156,65.865c30.234-25.754,67.302-41.839,106.385-46.899c-52.727,46.37-83.371,102.707-91.119,167.868
				c-0.555,4.676,2.79,8.917,7.467,9.481c0.341,0.034,0.683,0.06,1.015,0.06c4.267,0,7.953-3.191,8.474-7.526
				c8.038-67.703,40.934-123.238,100.489-169.583c17.007,13.252,32.034,27.469,44.706,42.317c3.081,3.584,8.448,4.002,12.032,0.947
				c3.584-3.063,4.011-8.448,0.956-12.032c-9.395-10.999-20.096-21.598-31.744-31.787c49.297,6.093,93.875,29.508,126.72,66.637
				h-37.205c-4.71,0-8.533,3.823-8.533,8.533c0,4.71,3.823,8.533,8.533,8.533h55.211h0.009c1.015,0,2.022-0.239,3.004-0.606
				c0.341-0.128,0.623-0.316,0.939-0.486c0.384-0.205,0.785-0.324,1.143-0.589c0.171-0.128,0.247-0.316,0.41-0.461
				c0.444-0.384,0.802-0.819,1.161-1.289c0.324-0.435,0.64-0.836,0.887-1.314c0.23-0.469,0.367-0.964,0.512-1.485
				c0.171-0.563,0.307-1.118,0.35-1.707c0.009-0.213,0.119-0.384,0.119-0.597c0-0.341-0.154-0.623-0.188-0.947
				c-0.068-0.589-0.162-1.135-0.35-1.698c-0.179-0.563-0.435-1.067-0.725-1.562c-0.171-0.29-0.222-0.614-0.418-0.887
				C357.504,32.414,292.855,0.064,222.037,0.013h-0.341C169.088,0.03,118.093,18.803,78.089,52.877
				c-3.593,3.055-4.011,8.439-0.964,12.023C80.188,68.501,85.564,68.911,89.156,65.865z"/>
			<path d="M341.333,221.879c0-49.818-11.136-93.099-34.031-132.301c-1.527-2.628-4.335-4.233-7.373-4.233H185.737
				c-4.719,0-8.533,3.823-8.533,8.533c0,4.71,3.814,8.533,8.533,8.533h109.235c18.449,33.152,28.032,69.564,29.175,110.933H145.067
				c-4.719,0-8.533,3.823-8.533,8.533c0,4.71,3.814,8.533,8.533,8.533H332.8C337.519,230.413,341.333,226.59,341.333,221.879z"/>
			<path d="M218.846,422.054c-27.247-21.914-50.671-48.401-67.746-76.595c-0.171-0.29-0.461-0.461-0.657-0.717
				c-0.367-0.469-0.734-0.905-1.195-1.289c-0.418-0.358-0.845-0.631-1.314-0.887c-0.478-0.273-0.939-0.512-1.468-0.683
				c-0.555-0.188-1.118-0.273-1.707-0.341c-0.324-0.043-0.614-0.196-0.956-0.196H51.191c-3.226,0-6.178,1.818-7.629,4.702
				c-1.442,2.884-1.143,6.332,0.777,8.926c39.97,53.726,101.444,86.016,168.661,88.602c0.111,0.009,0.213,0.009,0.333,0.009
				c4.557,0,8.346-3.601,8.516-8.201c0.051-1.22-0.179-2.381-0.597-3.447C222.669,428.523,221.875,424.486,218.846,422.054z
				 M69.111,358.413h70.016c15.155,24.047,34.56,46.797,56.883,66.628C146.765,418.914,101.888,395.396,69.111,358.413z"/>
			<path d="M494.933,247.454H256c-9.412,0-17.067,7.654-17.067,17.067v179.2c0,9.412,7.654,17.067,17.067,17.067h93.867v34.133
				h-34.133c-4.719,0-8.533,3.823-8.533,8.533s3.814,8.533,8.533,8.533H435.2c4.719,0,8.533-3.823,8.533-8.533
				s-3.814-8.533-8.533-8.533h-34.133v-34.133h93.867c9.412,0,17.067-7.654,17.067-17.067v-179.2
				C512,255.108,504.346,247.454,494.933,247.454z M256,264.521h238.933l0.009,128H256V264.521z M384,494.921h-17.067v-34.133H384
				V494.921z M494.95,443.721H256v-34.133h238.95V443.721z"/>
			<path d="M42.163,320.201c-15.053-27.469-23.603-58.342-24.917-89.788h85.274c0.87,31.514,6.605,61.261,17.075,88.533
				c1.681,4.403,6.605,6.613,11.025,4.915c4.395-1.69,6.596-6.622,4.907-11.017c-10.658-27.785-16.06-58.394-16.06-90.991v-0.026
				c-0.017-4.932-4.42-8.849-9.19-8.482H8.533c-4.719,0-8.533,3.823-8.533,8.533c0,37.231,9.412,74.069,27.204,106.53
				c1.544,2.824,4.471,4.429,7.484,4.429c1.391,0,2.799-0.341,4.096-1.05C42.914,329.519,44.433,324.331,42.163,320.201z"/>
			<path d="M11.17,187.191c0.572,0.128,1.143,0.179,1.715,0.179c3.968,0,7.526-2.782,8.346-6.818
				c5.871-28.663,17.459-54.912,34.355-78.165h55.347c4.719,0,8.533-3.823,8.533-8.533s-3.814-8.533-8.533-8.533H51.2
				c-0.188,0-0.35,0.094-0.538,0.111c-0.623,0.043-1.186,0.188-1.775,0.358c-0.495,0.136-0.981,0.265-1.434,0.486
				c-0.478,0.239-0.887,0.563-1.323,0.896c-0.469,0.358-0.913,0.7-1.306,1.152c-0.128,0.145-0.307,0.213-0.427,0.375
				c-19.797,26.121-33.212,55.868-39.885,88.422C3.567,181.739,6.554,186.253,11.17,187.191z"/>
		</g>
	</g>
</g>
<g>
</g>
<g>
</g>
<g>
</g>
<g>
</g>
<g>
</g>
<g>
</g>
<g>
</g>
<g>
</g>
<g>
</g>
<g>
</g>
<g>
</g>
<g>
</g>
<g>
</g>
<g>
</g>
<g>
</g>
</svg>
