<?xml version="1.0" ?><svg width="32px" height="32px" viewBox="0 0 32 32" enable-background="new 0 0 32 32" id="Filled_Line" version="1.1" xml:space="preserve" xmlns="http://www.w3.org/2000/svg" xmlns:xlink="http://www.w3.org/1999/xlink"><rect fill="#F9ED69" height="14" id="XMLID_887_" width="6" x="3" y="13"/><path d="M3,13v2h3.5C6.776,15,7,15.224,7,15.5V27h2V13H3z" fill="#FBF4A5" id="XMLID_390_"/><rect fill="#BBB24F" height="14" id="XMLID_391_" width="2" x="3" y="13"/><path d="M26.002,13H20V7.026C20,5.907,19.093,5,17.974,5c-0.615,0-1.198,0.28-1.582,0.76L9,15  l0.001,0L9,15v10l3,2h12.473c0.892,0,1.676-0.592,1.921-1.451l2.49-8.725C29.43,14.908,27.993,13,26.002,13z" fill="#F3A17D" id="XMLID_886_"/><path d="M14,26l-2.555-1.703C11.167,24.111,11,23.799,11,23.465V14l0.001,0l0-1.501L9,15l0.001,0  L9,15v10l3,2h12.473c0.721,0,1.356-0.398,1.708-1H14z" fill="#F08A5D" id="XMLID_392_"/><path d="M26.002,13H20V7.026C20,5.907,19.093,5,17.974,5c-0.615,0-1.198,0.28-1.582,0.76  l-1.089,1.361c0.482-0.17,1.031-0.165,1.55,0.075C17.579,7.533,18,8.311,18,9.111v4.926C18,14.569,18.431,15,18.963,15h6.403  c0.965,0,1.662,0.923,1.397,1.851L23.868,27h0.605c0.892,0,1.676-0.592,1.921-1.451l2.49-8.725C29.43,14.908,27.993,13,26.002,13z" fill="#FFFFFF" id="XMLID_393_"/><path d="  M26.002,13H20V7.026C20,5.907,19.093,5,17.974,5c-0.615,0-1.198,0.28-1.582,0.76L9,15l0.001,0L9,15v10l3,2h12.473  c0.892,0,1.676-0.592,1.921-1.451l2.49-8.725C29.43,14.908,27.993,13,26.002,13z" fill="none" id="XMLID_876_" stroke="#200F60" stroke-linecap="round" stroke-linejoin="round" stroke-miterlimit="10" stroke-width="2"/><rect fill="none" height="14" id="XMLID_875_" stroke="#200F60" stroke-linecap="round" stroke-linejoin="round" stroke-miterlimit="10" stroke-width="2" width="6" x="3" y="13"/><circle cx="6" cy="23" fill="#B83B5E" id="XMLID_874_" r="1"/></svg>