<?xml version="1.0" encoding="utf-8"?>
<!-- Generator: Adobe Illustrator 22.1.0, SVG Export Plug-In . SVG Version: 6.00 Build 0)  -->
<svg version="1.1" id="Capa_1" xmlns="http://www.w3.org/2000/svg" xmlns:xlink="http://www.w3.org/1999/xlink" x="0px" y="0px"
	 viewBox="0 0 512 512" style="enable-background:new 0 0 512 512;" xml:space="preserve">
<style type="text/css">
	.st0{fill:#FFFFFF;}
</style>
<g>
	<path class="st0" d="M7.5,109.5c4.1,0,7.5-3.4,7.5-7.5V88.4h444.3v71.2c0,4.1,3.4,7.5,7.5,7.5s7.5-3.4,7.5-7.5V31.7
		c0-17.4-14.2-31.6-31.6-31.6H31.6C14.2,0.1,0,14.3,0,31.7V102C0,106.2,3.4,109.5,7.5,109.5L7.5,109.5z M31.6,15.1h411.2
		c9.1,0,16.5,7.4,16.5,16.5v41.7H15V31.7C15,22.5,22.4,15.1,31.6,15.1z"/>
	<path class="st0" d="M165.6,459.4h-134c-9.1,0-16.5-7.4-16.5-16.5V134c0-4.1-3.4-7.5-7.5-7.5S0,129.9,0,134v308.9
		c0,17.4,14.2,31.6,31.6,31.6h134c4.1,0,7.5-3.4,7.5-7.5S169.7,459.4,165.6,459.4z"/>
	<path class="st0" d="M476.7,182.1H223.4c-19.5,0-35.3,15.8-35.3,35.3V315c0,4.1,3.4,7.5,7.5,7.5c4.1,0,7.5-3.4,7.5-7.5v-50.4H497
		v212c0,11.2-9.1,20.3-20.3,20.3H223.4c-11.2,0-20.3-9.1-20.3-20.3V347c0-4.1-3.4-7.5-7.5-7.5c-4.1,0-7.5,3.4-7.5,7.5v129.6
		c0,19.5,15.8,35.3,35.3,35.3h253.3c19.5,0,35.3-15.8,35.3-35.3V217.4C512,197.9,496.2,182.1,476.7,182.1L476.7,182.1z M203.1,249.5
		v-32.2c0-11.2,9.1-20.3,20.3-20.3h253.3c11.2,0,20.3,9.1,20.3,20.3v32.2H203.1z"/>
	<path class="st0" d="M46,51.4h5.6c4.1,0,7.5-3.4,7.5-7.5s-3.4-7.5-7.5-7.5H46c-4.1,0-7.5,3.4-7.5,7.5S41.9,51.4,46,51.4z"/>
	<path class="st0" d="M98.3,51.4h5.6c4.1,0,7.5-3.4,7.5-7.5s-3.4-7.5-7.5-7.5h-5.6c-4.1,0-7.5,3.4-7.5,7.5S94.1,51.4,98.3,51.4z"/>
	<path class="st0" d="M150.5,51.4h5.6c4.1,0,7.5-3.4,7.5-7.5s-3.4-7.5-7.5-7.5h-5.6c-4.1,0-7.5,3.4-7.5,7.5S146.4,51.4,150.5,51.4z"
		/>
	<path class="st0" d="M438.5,365.7h-31.6c-4.1,0-7.5,3.4-7.5,7.5c0,4.1,3.4,7.5,7.5,7.5h31.6c12.6,0,22.9-10.3,22.9-22.9V326
		c0-12.6-10.3-22.9-22.9-22.9H261.6c-12.6,0-22.9,10.3-22.9,22.9v31.9c0,12.6,10.3,22.9,22.9,22.9h113.3c4.1,0,7.5-3.4,7.5-7.5
		c0-4.1-3.4-7.5-7.5-7.5H261.6c-4.3,0-7.9-3.5-7.9-7.9V326c0-4.3,3.5-7.9,7.9-7.9h176.9c4.3,0,7.9,3.5,7.9,7.9v31.9
		C446.4,362.2,442.9,365.7,438.5,365.7L438.5,365.7z"/>
	<path class="st0" d="M79,150.3h318.5c4.1,0,7.5-3.4,7.5-7.5s-3.4-7.5-7.5-7.5H79c-9.2,0-16.6,7.5-16.6,16.6v93.7
		c0,9.2,7.5,16.6,16.6,16.6h67.7c4.1,0,7.5-3.4,7.5-7.5s-3.4-7.5-7.5-7.5H79c-0.9,0-1.6-0.7-1.6-1.6v-93.7
		C77.4,151,78.1,150.3,79,150.3z"/>
	<path class="st0" d="M146.4,294.1H69.8c-4.1,0-7.5,3.4-7.5,7.5s3.4,7.5,7.5,7.5h76.5c4.1,0,7.5-3.4,7.5-7.5
		S150.5,294.1,146.4,294.1z"/>
	<path class="st0" d="M146.4,350.4H69.8c-4.1,0-7.5,3.4-7.5,7.5s3.4,7.5,7.5,7.5h76.5c4.1,0,7.5-3.4,7.5-7.5
		S150.5,350.4,146.4,350.4z"/>
	<path class="st0" d="M246.2,445.6h207.7c4.1,0,7.5-3.4,7.5-7.5s-3.4-7.5-7.5-7.5H246.2c-4.1,0-7.5,3.4-7.5,7.5
		S242,445.6,246.2,445.6L246.2,445.6z"/>
</g>
</svg>
