<?xml version="1.0" encoding="utf-8"?>
<!-- Generator: Adobe Illustrator 22.1.0, SVG Export Plug-In . SVG Version: 6.00 Build 0)  -->
<svg version="1.1" id="圖層_1" xmlns="http://www.w3.org/2000/svg" xmlns:xlink="http://www.w3.org/1999/xlink" x="0px" y="0px"
	 viewBox="0 0 512 512" style="enable-background:new 0 0 512 512;" xml:space="preserve">
<style type="text/css">
	.st0{fill:#FFFFFF;}
</style>
<path class="st0" d="M34.1,443.7h131.3l-8.5,17.1h-3.3c-26.7,0-42.7,12.8-42.7,34.1c0,9.4,7.6,17.1,17.1,17.1h256
	c9.4,0,17.1-7.6,17.1-17.1c0-21.4-15.9-34.1-42.7-34.1h-3.3l-8.5-17.1h131.3c18.9,0,34.1-15.3,34.1-34.1V110.9
	c0-18.9-15.3-34.1-34.1-34.1H384c-4.7,0-8.5,3.8-8.5,8.5c0,4.7,3.8,8.5,8.5,8.5h93.9c9.4,0,17.1,7.6,17.1,17.1v298.7
	c0,9.4-7.6,17.1-17.1,17.1H34.1c-9.4,0-17.1-7.6-17.1-17.1V110.9c0-9.4,7.6-17.1,17.1-17.1H128c4.7,0,8.5-3.8,8.5-8.5
	c0-4.7-3.8-8.5-8.5-8.5H34.1C15.3,76.8,0,92.1,0,110.9v298.7C0,428.5,15.3,443.7,34.1,443.7z M384,494.9H128c0-4.2,0-17.1,25.6-17.1
	h204.8C384,477.9,384,490.7,384,494.9z M327.5,443.7l8.5,17.1H175.9l8.5-17.1H327.5z"/>
<path class="st0" d="M452.3,358.4H59.7c-4.7,0-8.5-3.8-8.5-8.5V136.5c0-4.7,3.8-8.5,8.5-8.5h25.6c4.7,0,8.5-3.8,8.5-8.5
	c0-4.7-3.8-8.5-8.5-8.5H59.7c-14.1,0-25.6,11.5-25.6,25.6v213.3c0,14.1,11.5,25.6,25.6,25.6h392.5c14.1,0,25.6-11.5,25.6-25.6V136.5
	c0-14.1-11.5-25.6-25.6-25.6h-25.6c-4.7,0-8.5,3.8-8.5,8.5c0,4.7,3.8,8.5,8.5,8.5h25.6c4.7,0,8.5,3.8,8.5,8.5v213.3
	C460.8,354.6,457,358.4,452.3,358.4z"/>
<path class="st0" d="M213.3,392.5c-4.7,0-8.5,3.8-8.5,8.5c0,4.7,3.8,8.5,8.5,8.5h85.3c4.7,0,8.5-3.8,8.5-8.5c0-4.7-3.8-8.5-8.5-8.5
	H213.3z"/>
<path class="st0" d="M365.7,49.6l-14.2-14.2c-5.8-5.8-14.8-6.6-21.6-2.1l-21.3,14.1c-6.6-3.6-13.6-6.4-20.8-8.5l-5-25.2
	c-1.6-8-8.6-13.7-16.7-13.7h-20.1c-8.1,0-15.1,5.7-16.7,13.7L224,38.8c-7.2,2.1-14.1,5-20.7,8.6l-21.2-14.2
	c-6.8-4.5-15.8-3.6-21.6,2.1l-14.3,14.2c-5.7,5.8-6.6,14.8-2.1,21.5l14.1,21.3c-3.5,6.6-6.4,13.6-8.5,20.8l-25.2,5
	c-8,1.6-13.7,8.6-13.8,16.7v20.2c0,8.1,5.8,15.1,13.7,16.7l25.1,5.1c2.1,7.2,5,14.1,8.6,20.7L144.2,219c-4.5,6.8-3.6,15.8,2.1,21.6
	l14.2,14.2c5.8,5.8,14.8,6.6,21.6,2.1l21.3-14.1c6.6,3.6,13.6,6.4,20.8,8.5l5,25.2c1.6,8,8.6,13.7,16.7,13.7h20.1
	c8.1,0,15.1-5.7,16.7-13.7l5.2-25.1c7.2-2.1,14.1-5,20.7-8.6l21.2,14.2c6.8,4.5,15.8,3.6,21.6-2.1l14.2-14.2
	c5.7-5.8,6.6-14.8,2.1-21.6l-14.1-21.3c3.5-6.6,6.4-13.5,8.5-20.6l-8.2-2.4l8.1,2.3l25.2-5c7.9-1.6,13.7-8.6,13.7-16.7V135
	c0-8.1-5.8-15.1-13.7-16.7l-25.1-5.1c-2.1-7.2-5-14.1-8.6-20.7l14.2-21.3C372.4,64.4,371.5,55.4,365.7,49.6z M339.4,82.9
	c-3.5,5.3-3.8,12.1-0.7,17.6c3,5.6,5.4,11.4,7.2,17.4c1.8,6.1,6.8,10.7,13,12l25.1,5v20.2l-25.1,5c-6.2,1.3-11.2,5.9-13,12
	c-1.8,6-4.2,11.9-7.2,17.4c-3,5.6-2.8,12.3,0.7,17.6l14.2,21.3l-14.2,14.2l-21.3-14.2c-5.3-3.5-12.1-3.8-17.6-0.8
	c-5.6,3-11.4,5.4-17.4,7.2c-6.1,1.8-10.7,6.8-11.9,13l-5.1,25.1h-20.1l-5-25.2c-1.3-6.2-5.9-11.2-12-13c-6-1.8-11.9-4.2-17.4-7.2
	c-2.5-1.4-5.4-2.1-8.2-2.1c-3.3,0-6.6,1-9.4,2.8l-21.3,14.2l-14.2-14.2l14.2-21.3c3.5-5.3,3.8-12.1,0.7-17.6
	c-3-5.6-5.4-11.4-7.2-17.4c-1.8-6.1-6.8-10.7-13-12l-25.1-5V135l25.1-5c6.2-1.3,11.2-5.9,13-12c1.8-6,4.2-11.9,7.2-17.4
	c3-5.6,2.8-12.3-0.7-17.6l-14.2-21.3l14.2-14.2l21.3,14.2c5.3,3.5,12.1,3.8,17.6,0.8c5.6-3,11.4-5.4,17.4-7.2
	c6.1-1.8,10.7-6.8,12-13l5-25.1h20.1l5,25.2c1.3,6.2,5.9,11.2,12,13c6,1.8,11.9,4.2,17.4,7.2c5.6,3,12.3,2.8,17.6-0.7l21.3-14.2
	l14.2,14.2L339.4,82.9z"/>
<path class="st0" d="M256,76.8c-37.7,0-68.3,30.6-68.3,68.3s30.6,68.3,68.3,68.3s68.3-30.6,68.3-68.3
	C324.2,107.4,293.7,76.8,256,76.8z M256,196.3c-28.3,0-51.2-22.9-51.2-51.2s22.9-51.2,51.2-51.2s51.2,22.9,51.2,51.2
	C307.2,173.3,284.3,196.2,256,196.3z"/>
<path class="st0" d="M264.5,145.1c0,4.7-3.8,8.5-8.5,8.5s-8.5-3.8-8.5-8.5c0-4.7,3.8-8.5,8.5-8.5S264.5,140.4,264.5,145.1z"/>
</svg>
