<?xml version="1.0" encoding="utf-8"?>
<!-- Generator: Adobe Illustrator 22.1.0, SVG Export Plug-In . SVG Version: 6.00 Build 0)  -->
<svg version="1.1" id="Capa_1" xmlns="http://www.w3.org/2000/svg" xmlns:xlink="http://www.w3.org/1999/xlink" x="0px" y="0px"
	 viewBox="0 0 512 512" style="enable-background:new 0 0 512 512;" xml:space="preserve">
<style type="text/css">
	.st0{fill:#FFFFFF;}
</style>
<g id="_x31_3_idea_2_">
	<path class="st0" d="M256,49c4.2,0,7.6-3.4,7.6-7.6V7.6c0-4.2-3.4-7.6-7.6-7.6c-4.2,0-7.6,3.4-7.6,7.6v33.9
		C248.4,45.6,251.8,49,256,49z"/>
	<path class="st0" d="M387.6,59l-24,24c-3,3-3,7.7,0,10.7c1.5,1.5,3.4,2.2,5.3,2.2s3.9-0.7,5.3-2.2l24-24c3-3,3-7.7,0-10.7
		C395.4,56,390.6,56,387.6,59L387.6,59z"/>
	<path class="st0" d="M137.7,308.9l-24,24c-3,3-3,7.7,0,10.7c1.5,1.5,3.4,2.2,5.3,2.2c1.9,0,3.9-0.7,5.3-2.2l24-24c3-3,3-7.7,0-10.7
		C145.4,306,140.6,306,137.7,308.9z"/>
	<path class="st0" d="M137.7,93.6c1.5,1.5,3.4,2.2,5.3,2.2c1.9,0,3.9-0.7,5.3-2.2c3-3,3-7.7,0-10.7l-24-24c-3-3-7.7-3-10.7,0
		c-3,3-3,7.7,0,10.7L137.7,93.6z"/>
	<path class="st0" d="M374.3,308.9c-3-3-7.7-3-10.7,0c-3,3-3,7.7,0,10.7l24,24c1.5,1.5,3.4,2.2,5.3,2.2c1.9,0,3.9-0.7,5.3-2.2
		c3-3,3-7.7,0-10.7L374.3,308.9z"/>
	<path class="st0" d="M96.2,193.7H62.3c-4.2,0-7.6,3.4-7.6,7.6c0,4.2,3.4,7.6,7.6,7.6h33.9c4.2,0,7.6-3.4,7.6-7.6
		C103.8,197.1,100.4,193.7,96.2,193.7z"/>
	<path class="st0" d="M449.7,193.7h-33.9c-4.2,0-7.6,3.4-7.6,7.6c0,4.2,3.4,7.6,7.6,7.6h33.9c4.2,0,7.6-3.4,7.6-7.6
		C457.3,197.1,453.9,193.7,449.7,193.7z"/>
	<path class="st0" d="M316.7,408.2c4.2,0,7.6-3.4,7.6-7.6c0-4.2-3.4-7.6-7.6-7.6H314v-25.5l0.1-0.9c1.5-9.2,4.3-18.3,8.2-26.8
		c1.7-3.8,0.1-8.3-3.7-10c-3.8-1.7-8.3-0.1-10,3.7c-3.8,8.3-6.6,16.9-8.5,25.8h-88.6c-5.3-25.8-18.6-49.2-37.8-66.4
		c-22.7-20.3-37-48.1-40.2-78.2c-0.5-4.1-4.2-7.1-8.3-6.7c-4.1,0.5-7.1,4.2-6.7,8.3c3.7,33.8,19.7,65,45.2,87.9
		c17.8,15.9,29.8,38,33.8,62.2l0.2,1.1v25.5h-2.5c-4.2,0-7.6,3.4-7.6,7.6c0,4.2,3.4,7.6,7.6,7.6h2.5v18.6h-2.5
		c-4.2,0-7.6,3.4-7.6,7.6c0,4.2,3.4,7.6,7.6,7.6h2.5v13c0,8.9,5.7,16.6,13.6,19.5c1.1,15.8,10.3,29.7,24.7,36.8
		c1.1,0.5,2.2,0.8,3.4,0.8c2.8,0,5.5-1.5,6.8-4.2c1.9-3.7,0.3-8.3-3.4-10.1c-8.8-4.4-14.6-12.5-16.1-22H285
		c-1.4,9.4-7.3,17.6-16.1,22c-3.7,1.9-5.3,6.4-3.4,10.1c1.3,2.7,4,4.2,6.8,4.2c1.1,0,2.3-0.3,3.4-0.8c14.3-7.1,23.6-21,24.7-36.8
		c7.9-2.9,13.6-10.5,13.6-19.5v-13h2.7c4.2,0,7.6-3.4,7.6-7.6s-3.4-7.6-7.6-7.6H314v-18.6H316.7z M212.8,374.5h86.1v18.6h-86.1
		V374.5z M298.9,454.9c0,3.1-2.5,5.7-5.7,5.7h-74.7c-3.1,0-5.7-2.5-5.7-5.7v-13h86.1V454.9z M298.9,426.9h-86.1v-18.6h86.1V426.9z"
		/>
	<path class="st0" d="M256,240c21.4,0,38.8-17.4,38.8-38.8s-17.4-38.8-38.8-38.8s-38.8,17.4-38.8,38.8S234.6,240,256,240z
		 M256,177.6c13,0,23.6,10.6,23.6,23.6S269,224.9,256,224.9c-13,0-23.6-10.6-23.6-23.6S243,177.6,256,177.6z"/>
	<path class="st0" d="M172.7,177.7c-6.9,0-12.6,5.6-12.6,12.6v21.9c0,6.9,5.6,12.6,12.6,12.6h15.1c0.9,2.7,2,5.4,3.3,8l-10.7,10.7
		c-4.9,4.9-4.9,12.9,0,17.8l15.5,15.5c4.9,4.9,12.9,4.9,17.8,0l10.7-10.7c2.6,1.3,5.3,2.4,8,3.3v15.1c0,6.9,5.6,12.6,12.6,12.6H267
		c6.9,0,12.6-5.6,12.6-12.6v-15.1c2.7-0.9,5.4-2,8-3.3l10.7,10.7c2.4,2.4,5.5,3.7,8.9,3.7c3.4,0,6.5-1.3,8.9-3.7l15.5-15.5
		c4.9-4.9,4.9-12.9,0-17.8l-10.7-10.7c1.3-2.6,2.4-5.3,3.3-8h15.1c6.9,0,12.6-5.6,12.6-12.6v-21.9c0-6.9-5.6-12.6-12.6-12.6h-15.1
		c-0.9-2.7-2-5.4-3.3-8l10.7-10.7c4.9-4.9,4.9-12.9,0-17.8L316,125.7c-2.4-2.4-5.5-3.7-8.9-3.7c-3.4,0-6.5,1.3-8.9,3.7l-10.7,10.7
		c-2.6-1.3-5.3-2.4-8-3.3V118c0-6.9-5.6-12.6-12.6-12.6H245c-6.9,0-12.6,5.6-12.6,12.6v15.1c-2.7,0.9-5.4,2-8,3.3l-10.7-10.7
		c-4.9-4.9-12.9-4.9-17.8,0l-15.5,15.5c-4.9,4.9-4.9,12.9,0,17.8l10.7,10.7c-1.3,2.6-2.4,5.3-3.3,8L172.7,177.7L172.7,177.7z
		 M205.8,163l-12.9-12.9l12-12l12.9,12.9c2.4,2.4,6.2,2.9,9.2,1.2c4.7-2.8,9.7-4.9,14.9-6.2c3.3-0.9,5.7-3.9,5.7-7.3v-18.2h16.9
		v18.2c0,3.5,2.3,6.5,5.7,7.3c5.2,1.3,10.3,3.4,14.9,6.2c3,1.8,6.8,1.3,9.2-1.2l12.9-12.9l12,12L306.2,163c-2.4,2.4-2.9,6.2-1.2,9.2
		c2.8,4.7,4.9,9.7,6.2,14.9c0.9,3.3,3.9,5.7,7.3,5.7h18.2v16.9h-18.2c-3.5,0-6.5,2.3-7.3,5.7c-1.3,5.2-3.4,10.2-6.2,14.9
		c-1.8,3-1.3,6.8,1.2,9.2l12.9,12.9l-12,12l-12.9-12.9c-2.4-2.4-6.2-2.9-9.2-1.2c-4.7,2.8-9.7,4.9-14.9,6.2
		c-3.3,0.9-5.7,3.9-5.7,7.3V282h-16.9v-18.2c0-3.5-2.3-6.5-5.7-7.3c-5.2-1.3-10.3-3.4-14.9-6.2c-3-1.8-6.8-1.3-9.2,1.2l-12.9,12.9
		l-12-12l12.9-12.9c2.4-2.4,2.9-6.2,1.2-9.2c-2.8-4.7-4.9-9.7-6.2-14.9c-0.9-3.3-3.9-5.7-7.3-5.7h-18.2v-16.9h18.2
		c3.5,0,6.5-2.3,7.3-5.7c1.3-5.2,3.4-10.3,6.2-14.9C208.7,169.2,208.2,165.5,205.8,163L205.8,163z"/>
	<path class="st0" d="M354.4,104.1c-25.7-26-60-40.6-96.6-41.1c-33.9-0.4-66.8,11.8-92.6,34.5c-25.6,22.5-42.1,53.1-46.3,86.3
		c-0.5,4.1,2.4,7.9,6.5,8.5c4.1,0.5,7.9-2.4,8.5-6.5c3.8-29.6,18.5-56.9,41.3-76.9c23-20.2,52.3-31.1,82.4-30.8
		c32.6,0.4,63.1,13.4,86,36.6c22.9,23.2,35.6,54,35.6,86.6c0,34.6-14.7,67.8-40.3,91.1c-3.9,3.6-7.7,7.5-11.2,11.5
		c-2.7,3.2-2.4,7.9,0.8,10.7c1.4,1.2,3.2,1.8,4.9,1.8c2.1,0,4.2-0.9,5.7-2.6c3.1-3.6,6.4-7,9.9-10.1c28.8-26.2,45.3-63.5,45.3-102.3
		C394.3,164.6,380.1,130.1,354.4,104.1L354.4,104.1z"/>
</g>
</svg>
