<?xml version="1.0" ?><svg width="32px" height="32px" viewBox="0 0 32 32" enable-background="new 0 0 32 32" id="Filled_Line" version="1.1" xml:space="preserve" xmlns="http://www.w3.org/2000/svg" xmlns:xlink="http://www.w3.org/1999/xlink"><circle cx="14" cy="14" fill="#F9ED69" id="XMLID_894_" r="9"/><path d="M16,22c-4.971,0-9-4.029-9-9c0-3.111,1.578-5.852,3.977-7.469C7.496,6.774,5,10.091,5,14  c0,4.971,4.029,9,9,9c1.86,0,3.588-0.565,5.023-1.531C18.077,21.806,17.062,22,16,22z" fill="#BBB24F" id="XMLID_404_"/><path d="M14,5c-2.996,0-5.643,1.47-7.279,3.721C8.205,7.643,10.025,7,12,7c4.971,0,9,4.029,9,9  c0,1.975-0.643,3.795-1.721,5.279C21.53,19.643,23,16.996,23,14C23,9.029,18.971,5,14,5z" fill="#FBF4A5" id="XMLID_405_"/><circle cx="14" cy="14" fill="none" id="XMLID_893_" r="9" stroke="#200F60" stroke-linecap="round" stroke-linejoin="round" stroke-miterlimit="10" stroke-width="2"/><path d="  M15.996,8.341c1.702,0.602,3.054,1.952,3.659,3.653" fill="none" id="XMLID_406_" stroke="#FFFFFF" stroke-linecap="round" stroke-linejoin="round" stroke-miterlimit="10" stroke-width="2"/><line fill="none" id="XMLID_892_" stroke="#200F60" stroke-linecap="round" stroke-linejoin="round" stroke-miterlimit="10" stroke-width="2" x1="27" x2="20.366" y1="27" y2="20.366"/><path d="M18,15h-8c-0.552,0-1-0.448-1-1s0.448-1,1-1h8c0.552,0,1,0.448,1,1S18.552,15,18,15z" fill="#F3A17D" id="XMLID_422_"/><path d="M9.781,13.5h8c0.552,0,1,0.448,1,1c0,0.049-0.021,0.091-0.028,0.139  C18.901,14.464,19,14.246,19,14c0-0.552-0.448-1-1-1h-8c-0.503,0-0.902,0.378-0.972,0.861C9.211,13.645,9.475,13.5,9.781,13.5z" fill="#B46846" id="XMLID_423_"/></svg>