<?xml version="1.0" ?><svg width="32px" height="32px" viewBox="0 0 32 32" enable-background="new 0 0 32 32" id="Filled_Line" version="1.1" xml:space="preserve" xmlns="http://www.w3.org/2000/svg" xmlns:xlink="http://www.w3.org/1999/xlink"><path d="M16.842,3.548l3.29,6.984c0.137,0.29,0.401,0.491,0.707,0.538l7.357,1.12  c0.77,0.117,1.077,1.108,0.52,1.677l-5.324,5.436c-0.221,0.226-0.322,0.551-0.27,0.87l1.257,7.676  c0.131,0.803-0.673,1.416-1.362,1.036l-6.58-3.624c-0.273-0.151-0.6-0.151-0.873,0l-6.58,3.624  c-0.688,0.379-1.493-0.233-1.362-1.036l1.257-7.676c0.052-0.319-0.049-0.644-0.27-0.87l-5.324-5.436  c-0.557-0.569-0.25-1.56,0.52-1.677l7.357-1.12c0.306-0.047,0.57-0.248,0.707-0.538l3.29-6.984  C15.503,2.817,16.497,2.817,16.842,3.548z" fill="#F9ED69" id="XMLID_1238_"/><path d="M9.621,27.849l1.257-7.676c0.052-0.319-0.049-0.644-0.27-0.87l-5.324-5.436  c-0.557-0.569-0.25-1.56,0.52-1.677l7.357-1.12c0.306-0.047,0.57-0.248,0.707-0.538L17,3.884l-0.158-0.336  c-0.344-0.731-1.339-0.731-1.683,0l-3.29,6.984c-0.137,0.29-0.401,0.491-0.707,0.538l-7.357,1.12  c-0.77,0.117-1.077,1.108-0.52,1.677l5.324,5.436c0.221,0.226,0.322,0.551,0.27,0.87l-1.257,7.676  c-0.131,0.803,0.673,1.416,1.362,1.036l0.742-0.408C9.63,28.295,9.583,28.082,9.621,27.849z" fill="#BBB24F" id="XMLID_1250_"/><path d="M23.122,20.173c-0.007-0.042-0.004-0.083-0.006-0.124l-1.412,1.442  c-0.221,0.226-0.322,0.551-0.27,0.87l1.017,6.214l0.565,0.311c0.688,0.379,1.493-0.233,1.362-1.036L23.122,20.173z" fill="#FBF4A5" id="XMLID_1248_"/><path d="M28.195,12.189l-7.357-1.12c-0.306-0.047-0.57-0.248-0.707-0.538l-3.29-6.984  c-0.344-0.731-1.339-0.731-1.683,0l-0.777,1.649c0.311,0.024,0.612,0.199,0.772,0.539l3.29,6.984  c0.137,0.29,0.401,0.491,0.707,0.538l7.357,1.12c0.48,0.073,0.78,0.486,0.803,0.924l1.405-1.435  C29.273,13.298,28.965,12.307,28.195,12.189z" fill="#FBF4A5" id="XMLID_1249_"/><path d="  M16.842,3.548l3.29,6.984c0.137,0.29,0.401,0.491,0.707,0.538l7.357,1.12c0.77,0.117,1.077,1.108,0.52,1.677l-5.324,5.436  c-0.221,0.226-0.322,0.551-0.27,0.87l1.257,7.676c0.131,0.803-0.673,1.416-1.362,1.036l-6.58-3.624c-0.273-0.151-0.6-0.151-0.873,0  l-6.58,3.624c-0.688,0.379-1.493-0.233-1.362-1.036l1.257-7.676c0.052-0.319-0.049-0.644-0.27-0.87l-5.324-5.436  c-0.557-0.569-0.25-1.56,0.52-1.677l7.357-1.12c0.306-0.047,0.57-0.248,0.707-0.538l3.29-6.984  C15.503,2.817,16.497,2.817,16.842,3.548z" fill="none" id="XMLID_822_" stroke="#200F60" stroke-linecap="round" stroke-linejoin="round" stroke-miterlimit="10" stroke-width="2"/><polyline fill="none" id="XMLID_1245_" points="  21.563,14.214 23.837,14.561 22.68,15.742 " stroke="#FFFFFF" stroke-linecap="round" stroke-linejoin="round" stroke-miterlimit="10" stroke-width="2"/></svg>